<?xml version="1.0" encoding="UTF-8" standalone="no"?>
<!DOCTYPE svg PUBLIC "-//W3C//DTD SVG 1.1//EN"
 "http://www.w3.org/Graphics/SVG/1.1/DTD/svg11.dtd">
<!-- Generated by graphviz version 2.40.1 (20161225.0304)
 -->
<!-- Title: figureName Pages: 1 -->
<svg width="72pt" height="116pt"
 viewBox="0.00 0.00 71.90 116.00" xmlns="http://www.w3.org/2000/svg" xmlns:xlink="http://www.w3.org/1999/xlink">
<g id="graph0" class="graph" transform="scale(1 1) rotate(0) translate(4 112)">
<title>figureName</title>
<polygon fill="#ffffff" stroke="transparent" points="-4,4 -4,-112 67.9011,-112 67.9011,4 -4,4"/>
<!-- name -->
<g id="node1" class="node">
<title>name</title>
<ellipse fill="none" stroke="#000000" cx="31.9506" cy="-90" rx="31.9012" ry="18"/>
<text text-anchor="middle" x="31.9506" y="-85.8" font-family="Times,serif" font-size="14.00" fill="#000000">name</text>
</g>
<!-- thing -->
<g id="node2" class="node">
<title>thing</title>
<ellipse fill="none" stroke="#000000" cx="31.9506" cy="-18" rx="30.7789" ry="18"/>
<text text-anchor="middle" x="31.9506" y="-13.8" font-family="Times,serif" font-size="14.00" fill="#000000">thing</text>
</g>
<!-- name&#45;&gt;thing -->
<g id="edge1" class="edge">
<title>name&#45;&gt;thing</title>
<path fill="none" stroke="#000000" d="M26.0348,-72.2022C25.2451,-64.3271 25.016,-54.875 25.3477,-46.0852"/>
<polygon fill="#000000" stroke="#000000" points="28.8575,-46.0532 26.0303,-35.8425 21.873,-45.5876 28.8575,-46.0532"/>
</g>
<!-- thing&#45;&gt;name -->
<g id="edge2" class="edge">
<title>thing&#45;&gt;name</title>
<path fill="none" stroke="#000000" d="M37.8708,-35.8425C38.6584,-43.7236 38.8853,-53.1774 38.5515,-61.9647"/>
<polygon fill="#000000" stroke="#000000" points="35.042,-61.9908 37.8663,-72.2022 42.0264,-62.4583 35.042,-61.9908"/>
</g>
</g>
</svg>
